<svg xmlns="http://www.w3.org/2000/svg" xmlns:xlink="http://www.w3.org/1999/xlink" id="Layer_1" data-name="Layer 1" viewBox="0 0 85 36"><defs><linearGradient id="linear-gradient" x1="11.87" y1="23.77" x2="30.99" y2="0.01" gradientUnits="userSpaceOnUse"><stop offset="0" stop-color="#b26518"></stop><stop offset="0.42" stop-color="#f5c151"></stop><stop offset="0.87" stop-color="#b26518"></stop><stop offset="0.99" stop-color="#b26518"></stop></linearGradient></defs><path d="M5.24,3.4a39,39,0,0,1,29.15,0V21.71s-.3,8.69-14.58,13.72c0,0,1.67-3.82,1.21-5.07,0,0,.61-.15.76,1.71,0,0,2.55-4.5-1.51-9.63,0,0,5.27.47,7.07,7.92,0,0,5.42-2.95,5.87-8.85V4.11s-8.73-4-20.76-1.56c0,0,3.61.63,3.76,1.87,0,0-3.46-1.4-5.56-.47,0,0,1.65.16,1.5.62a4.82,4.82,0,0,0-5.56,4.2s1.8-1.56,3.15-1.4c0,0-.9.93-.9,1.4l1.51-.47s-2.71,2-2.56,4L9,11.41a11.54,11.54,0,0,0-2.25,7.15,13.33,13.33,0,0,0,2.7,6.21s3.91,5.34,2.86,7.05c0,0-6.47-3.94-6.92-11.4C5.23,12.5,5.24,3.4,5.24,3.4Z" style="fill:#f1b74e"></path><path d="M20.87,10.94h1.77s1.09,1.25.49,1.25C23.13,12.19,22.68,12.81,20.87,10.94Z" style="fill:#f3b54a"></path><path d="M32.47,4.57s-9-3.26-16.86-1.71c0,0,3.61,1.87,3.76,3.42,0,0-1.2-1.4-1.8-1.4,0,0,1.05,1.87.9,2.65,0,0-2.26-3.42-5.72-3,0,0,.75.31.6.47H12s.6.31.6.62H10.65l-.91.47V5.58s-1.95.39-2.25,2A8.82,8.82,0,0,1,12,6.59L10.2,7.84,11.55,8S9,9.7,8.84,11.1c0,0,2-1.55,2.41-1.24,0,0-4.36,3.57-3.61,7,0,0,1.5-4.2,3.31-5.13,0,0-4.06,5.59,3.46,11.81,0,0,5.86,4.35,3.46,9.32a9.65,9.65,0,0,0-3.76-7.92s-3.46-3.42-4.06-4.67c0,0-1.88-3.41-.87-5.2,0,0-3,3.81,2.07,10.18,0,0,3.16,3.91,2.41,7.48L19,35.29s3.83-4.46-.83-12.07a10.66,10.66,0,0,1,3.54,6.26A5.88,5.88,0,0,0,21,25.39c-1.2-2.17-2.4-4.19-2.4-4.19s7.37.31,9.17,7.61a9.59,9.59,0,0,0,4.68-7.61C32.44,13.58,32.47,4.57,32.47,4.57ZM17.57,3.49S22.68,5,23,9.08a6.24,6.24,0,0,0-3.46-1.71l1.05-.16S21,5.35,17.57,3.49Zm-5,4.25a4.07,4.07,0,0,1,.65-1.28,1.9,1.9,0,0,1,1.19-.64A2,2,0,0,1,16,6.17a5.23,5.23,0,0,1,1.13,1.34.44.44,0,0,1,.06.4,1.87,1.87,0,0,1-.07.22.58.58,0,0,1-.33.34c-.36.11-.7-.24-.92-.48a.71.71,0,0,0-.15-.15.85.85,0,0,0-.24-.08,1,1,0,0,0-.59.07,1.17,1.17,0,0,0-.52.9,4.77,4.77,0,0,0,0,1.36A13.21,13.21,0,0,0,14.86,12a4.19,4.19,0,0,1-.9-.38,3.66,3.66,0,0,1-1-.75,2.37,2.37,0,0,1-.51-.81A3.58,3.58,0,0,1,12.57,7.74Zm-1.28,8.12-.64,1C10.2,12.65,12,11.56,12,11.56a3.23,3.23,0,0,0,0,1.87,3,3,0,0,1,1.81-.93c-1.36,1.86-.91,3.1-.91,3.1.76-.93,1.21-.77,1.21-.77-1.81,3.73.68,7.64.68,7.64C11,19.23,11.29,15.86,11.29,15.86Zm17.1,8.29s0-1.09-.45-1.24l-.15.93s-.3-1.24-3.16-1.87a6.53,6.53,0,0,1,4.22-1.39S29.3,23.53,28.39,24.15ZM29,19.8a5,5,0,0,1,.9-2.8S30.5,19.18,29,19.8Zm1.5-4.2s-4.06-1.08-3.16.47l1.51,1.4s.9,3-3.76,3c0,0-1.21-.16,0-.78,0,0,1.4-.48.39-.55a2.89,2.89,0,0,0-1.9.55s.15-.93,1.81-1.08c0,0,1.06-.35.08-.41a3.74,3.74,0,0,0-1.59.25s0-.31.6-.78c0,0,1.06-1.55-2.85-2,0,0-1.06-.15-.76,1.71,0,0-2.25-1.55-2.4-2.79,0,0-.92,1.22,2.55,4.57,0,0-.45.24-2.1-.38,0,0,.15.93,2.41,2,0,0-5.16.16-3.94-5.44,0,0-2.53.94-.73,7.31,0,0-3.61-4-1.05-8.86,0,0,1.79-2.65.07-4.28l1.74-.07.3-.78,1.8.31V8a12.29,12.29,0,0,1,5.72,3.73S31.4,14.67,30.5,15.6Z" style="fill:#f1b74e"></path><path d="M5.24,3.4a39,39,0,0,1,29.15,0V21.71s-.3,8.69-14.58,13.72c0,0,1.67-3.82,1.21-5.07,0,0,.61-.15.76,1.71,0,0,2.55-4.5-1.51-9.63,0,0,5.27.47,7.07,7.92,0,0,5.42-2.95,5.87-8.85V4.11s-8.73-4-20.76-1.56c0,0,3.61.63,3.76,1.87,0,0-3.46-1.4-5.56-.47,0,0,1.65.16,1.5.62a4.82,4.82,0,0,0-5.56,4.2s1.8-1.56,3.15-1.4c0,0-.9.93-.9,1.4l1.51-.47s-2.71,2-2.56,4L9,11.41a11.54,11.54,0,0,0-2.25,7.15,13.33,13.33,0,0,0,2.7,6.21s3.91,5.34,2.86,7.05c0,0-6.47-3.94-6.92-11.4C5.23,12.5,5.24,3.4,5.24,3.4Z" style="fill:url(#linear-gradient)"></path><path d="M20.87,10.94h1.77s1.09,1.25.49,1.25C23.13,12.19,22.68,12.81,20.87,10.94Z" style="fill:url(#linear-gradient)"></path><path d="M32.47,4.57s-9-3.26-16.86-1.71c0,0,3.61,1.87,3.76,3.42,0,0-1.2-1.4-1.8-1.4,0,0,1.05,1.87.9,2.65,0,0-2.26-3.42-5.72-3,0,0,.75.31.6.47H12s.6.31.6.62H10.65l-.91.47V5.58s-1.95.39-2.25,2A8.82,8.82,0,0,1,12,6.59L10.2,7.84,11.55,8S9,9.7,8.84,11.1c0,0,2-1.55,2.41-1.24,0,0-4.36,3.57-3.61,7,0,0,1.5-4.2,3.31-5.13,0,0-4.06,5.59,3.46,11.81,0,0,5.86,4.35,3.46,9.32a9.65,9.65,0,0,0-3.76-7.92s-3.46-3.42-4.06-4.67c0,0-1.88-3.41-.87-5.2,0,0-3,3.81,2.07,10.18,0,0,3.16,3.91,2.41,7.48L19,35.29s3.83-4.46-.83-12.07a10.66,10.66,0,0,1,3.54,6.26A5.88,5.88,0,0,0,21,25.39c-1.2-2.17-2.4-4.19-2.4-4.19s7.37.31,9.17,7.61a9.59,9.59,0,0,0,4.68-7.61C32.44,13.58,32.47,4.57,32.47,4.57ZM17.57,3.49S22.68,5,23,9.08a6.24,6.24,0,0,0-3.46-1.71l1.05-.16S21,5.35,17.57,3.49Zm-5,4.25a4.07,4.07,0,0,1,.65-1.28,1.9,1.9,0,0,1,1.19-.64A2,2,0,0,1,16,6.17a5.23,5.23,0,0,1,1.13,1.34.44.44,0,0,1,.06.4,1.87,1.87,0,0,1-.07.22.58.58,0,0,1-.33.34c-.36.11-.7-.24-.92-.48a.71.71,0,0,0-.15-.15.85.85,0,0,0-.24-.08,1,1,0,0,0-.59.07,1.17,1.17,0,0,0-.52.9,4.77,4.77,0,0,0,0,1.36A13.21,13.21,0,0,0,14.86,12a4.19,4.19,0,0,1-.9-.38,3.66,3.66,0,0,1-1-.75,2.37,2.37,0,0,1-.51-.81A3.58,3.58,0,0,1,12.57,7.74Zm-1.28,8.12-.64,1C10.2,12.65,12,11.56,12,11.56a3.23,3.23,0,0,0,0,1.87,3,3,0,0,1,1.81-.93c-1.36,1.86-.91,3.1-.91,3.1.76-.93,1.21-.77,1.21-.77-1.81,3.73.68,7.64.68,7.64C11,19.23,11.29,15.86,11.29,15.86Zm17.1,8.29s0-1.09-.45-1.24l-.15.93s-.3-1.24-3.16-1.87a6.53,6.53,0,0,1,4.22-1.39S29.3,23.53,28.39,24.15ZM29,19.8a5,5,0,0,1,.9-2.8S30.5,19.18,29,19.8Zm1.5-4.2s-4.06-1.08-3.16.47l1.51,1.4s.9,3-3.76,3c0,0-1.21-.16,0-.78,0,0,1.4-.48.39-.55a2.89,2.89,0,0,0-1.9.55s.15-.93,1.81-1.08c0,0,1.06-.35.08-.41a3.74,3.74,0,0,0-1.59.25s0-.31.6-.78c0,0,1.06-1.55-2.85-2,0,0-1.06-.15-.76,1.71,0,0-2.25-1.55-2.4-2.79,0,0-.92,1.22,2.55,4.57,0,0-.45.24-2.1-.38,0,0,.15.93,2.41,2,0,0-5.16.16-3.94-5.44,0,0-2.53.94-.73,7.31,0,0-3.61-4-1.05-8.86,0,0,1.79-2.65.07-4.28l1.74-.07.3-.78,1.8.31V8a12.29,12.29,0,0,1,5.72,3.73S31.4,14.67,30.5,15.6Z" style="fill:url(#linear-gradient)"></path><path d="M41.85,12a6.09,6.09,0,0,1-1.94-.27,4.13,4.13,0,0,1-1.4-.8,3.2,3.2,0,0,1-.6-.7,3.78,3.78,0,0,1-.38-.75,3.52,3.52,0,0,1-.19-.76A4.93,4.93,0,0,1,37.28,8a4.54,4.54,0,0,1,0-.58,5.16,5.16,0,0,1,.18-.7,3.79,3.79,0,0,1,.35-.74,3.31,3.31,0,0,1,.56-.7,3.57,3.57,0,0,1,.51-.42,3.24,3.24,0,0,1,.67-.34,4.78,4.78,0,0,1,.85-.22,5.67,5.67,0,0,1,1.06-.09l.7,0a4.91,4.91,0,0,1,.77.09l.54.09.49.06.11,0a.11.11,0,0,1,0,.08,1.16,1.16,0,0,1,0,.17c0,.08,0,.21,0,.39s0,.17,0,.27,0,.21,0,.31V6a1.36,1.36,0,0,0,0,.18q0,.21-.09.21s-.08-.07-.08-.21a1.56,1.56,0,0,0-.11-.57,1.16,1.16,0,0,0-.31-.45,2.31,2.31,0,0,0-.82-.4,4.16,4.16,0,0,0-1.21-.17,5.61,5.61,0,0,0-.88.06,4.5,4.5,0,0,0-.66.17,2.29,2.29,0,0,0-.47.24,1.79,1.79,0,0,0-.32.26,2.46,2.46,0,0,0-.74,1.18,5.36,5.36,0,0,0-.18,1.42,3.68,3.68,0,0,0,1,2.54,3.6,3.6,0,0,0,2.64,1.11,5.09,5.09,0,0,0,1-.09,1.43,1.43,0,0,0,.75-.41,1.2,1.2,0,0,0,.26-.43,2.28,2.28,0,0,0,.11-.4c0-.1.06-.15.1-.15a.05.05,0,0,1,.06,0,.37.37,0,0,1,0,.11.88.88,0,0,1,0,.18c0,.1,0,.22,0,.36s0,.26-.07.4a1.59,1.59,0,0,1-.08.33.74.74,0,0,1-.08.19.67.67,0,0,1-.18.1,2.07,2.07,0,0,1-.37.11l-.45.07-.5,0Z" style="fill:#f1b74e"></path><path d="M46.16,7.2V9c0,.73,0,1.27,0,1.63a1.11,1.11,0,0,0,.18.65.83.83,0,0,0,.15.11,1,1,0,0,0,.22.07l.35,0h.5a5.44,5.44,0,0,0,.73,0,.7.7,0,0,0,.5-.26,1.1,1.1,0,0,0,.17-.28,1.15,1.15,0,0,0,.09-.31c0-.09,0-.13.09-.13s.06,0,.06.15a1.26,1.26,0,0,1,0,.16,2.6,2.6,0,0,1,0,.26c0,.1,0,.21-.05.31s0,.19-.06.26l-.05.14a.18.18,0,0,1-.09.08.4.4,0,0,1-.18,0H47.5l-.73,0-.57,0h-.88l-.31,0h-.27c-.11,0-.16,0-.16-.08s0-.06.08-.06h.15a.41.41,0,0,0,.16,0,.25.25,0,0,0,.2-.18,1.54,1.54,0,0,0,.09-.37,6.73,6.73,0,0,0,0-.88c0-.37,0-.8,0-1.28V5.66c0-.15,0-.27,0-.36a2,2,0,0,0,0-.25.92.92,0,0,0-.1-.39.48.48,0,0,0-.34-.18l-.16,0h-.18c-.06,0-.08,0-.08-.06s0-.08.16-.08h2.24c.11,0,.16,0,.16.08s0,.06-.08.06h-.15l-.18,0a.4.4,0,0,0-.3.17,1.16,1.16,0,0,0-.1.4,2,2,0,0,0,0,.25c0,.09,0,.21,0,.36V7.2Z" style="fill:#f1b74e"></path><path d="M49,8.07a3.77,3.77,0,0,1,.1-.85,4.2,4.2,0,0,1,.31-.88A4.71,4.71,0,0,1,50,5.51a3.37,3.37,0,0,1,.76-.69,3.67,3.67,0,0,1,1-.47A4.12,4.12,0,0,1,53,4.17a4.72,4.72,0,0,1,1.58.26,3.73,3.73,0,0,1,1.27.74,3.55,3.55,0,0,1,.83,1.18A3.88,3.88,0,0,1,57,7.91a4.35,4.35,0,0,1-.29,1.58,4,4,0,0,1-.82,1.3,3.89,3.89,0,0,1-1.28.88A4.24,4.24,0,0,1,53,12a4.11,4.11,0,0,1-1.79-.36A3.81,3.81,0,0,1,50,10.71a3.68,3.68,0,0,1-.7-1.27A4.41,4.41,0,0,1,49,8.07Zm1-.28a4.64,4.64,0,0,0,.25,1.58,3.68,3.68,0,0,0,.69,1.21,3.07,3.07,0,0,0,1,.76,3,3,0,0,0,1.28.27,3.52,3.52,0,0,0,.82-.12A2.39,2.39,0,0,0,55,11,2.84,2.84,0,0,0,55.72,10,4.18,4.18,0,0,0,56,8.19a4.26,4.26,0,0,0-.26-1.58,3.56,3.56,0,0,0-.68-1.16,2.81,2.81,0,0,0-1-.7A2.9,2.9,0,0,0,53,4.51a3.48,3.48,0,0,0-1.18.2,2.7,2.7,0,0,0-.94.62,3,3,0,0,0-.62,1A4.43,4.43,0,0,0,50,7.79Z" style="fill:#f1b74e"></path><path d="M58.67,12a4,4,0,0,1-.7-.06,2.19,2.19,0,0,1-.66-.2c-.07,0-.12-.07-.13-.11a.83.83,0,0,1,0-.27,6.33,6.33,0,0,1,0-.65c0-.19,0-.32,0-.4s0-.16.08-.16.07,0,.07.11a1,1,0,0,0,0,.16,1.83,1.83,0,0,0,0,.21,1.34,1.34,0,0,0,.2.47,1.28,1.28,0,0,0,.35.31,1.77,1.77,0,0,0,.45.18,2.12,2.12,0,0,0,.5.05,1.59,1.59,0,0,0,.64-.12,1.48,1.48,0,0,0,.45-.3,1.21,1.21,0,0,0,.27-.43,1.36,1.36,0,0,0,.09-.48,1.73,1.73,0,0,0-.06-.47,1.6,1.6,0,0,0-.2-.42A2.24,2.24,0,0,0,59.72,9l-.54-.48-.46-.37a7,7,0,0,1-.66-.61,3,3,0,0,1-.4-.55,1.55,1.55,0,0,1-.2-.51A2.07,2.07,0,0,1,57.4,6a1.73,1.73,0,0,1,.15-.73A1.69,1.69,0,0,1,58,4.67a1.92,1.92,0,0,1,.66-.37,2.61,2.61,0,0,1,.87-.13,3.94,3.94,0,0,1,.52,0,2.63,2.63,0,0,1,.42.07l.22,0h.14c.06,0,.1,0,.1.07s0,.12,0,.29,0,.43,0,.77c0,.15,0,.23-.07.23s-.06,0-.06,0a.2.2,0,0,1,0-.09l-.05-.26a.55.55,0,0,0-.09-.24.5.5,0,0,0-.09-.13.78.78,0,0,0-.21-.18,1.84,1.84,0,0,0-.39-.16,2.26,2.26,0,0,0-.57-.06,1.35,1.35,0,0,0-.89.3,1.07,1.07,0,0,0-.36.86,1.32,1.32,0,0,0,.25.77,3.4,3.4,0,0,0,.38.4,6.09,6.09,0,0,0,.61.5l.28.22a9,9,0,0,1,.74.65,3.15,3.15,0,0,1,.45.58,1.79,1.79,0,0,1,.23.54,2.78,2.78,0,0,1,.06.58,2.6,2.6,0,0,1,0,.36,2.22,2.22,0,0,1-.14.44,2.09,2.09,0,0,1-.26.45,1.84,1.84,0,0,1-.43.4,2.14,2.14,0,0,1-.72.33A3.59,3.59,0,0,1,58.67,12Z" style="fill:#f1b74e"></path><path d="M62.38,9V5.3c0-.09,0-.17,0-.25a.92.92,0,0,0-.1-.39.48.48,0,0,0-.34-.18l-.16,0h-.18s-.08,0-.08-.06,0-.08.16-.08h.73l.42,0h2.32a2.83,2.83,0,0,0,.43,0l.07,0,.08,0s0,0,0,.09a.56.56,0,0,1,0,.15,2.67,2.67,0,0,0-.06.32v.13a1.37,1.37,0,0,1,0,.19c0,.07,0,.14,0,.2a.41.41,0,0,1,0,.14.19.19,0,0,1,0,.07.05.05,0,0,1,0,0c-.05,0-.08,0-.08-.13a1,1,0,0,0,0-.16.42.42,0,0,0,0-.2.44.44,0,0,0-.18-.21,1.59,1.59,0,0,0-.54-.13l-.27,0H63.29s-.06,0-.06.1V7.55c0,.07,0,.1.06.1h1.28l.33,0,.3,0a.27.27,0,0,0,.18-.1c.08-.08.13-.13.15-.13s0,0,0,.08a.82.82,0,0,1,0,.18c0,.09,0,.22,0,.38s0,.11,0,.18a1.15,1.15,0,0,0,0,.19,1,1,0,0,0,0,.17.46.46,0,0,0,0,.1.62.62,0,0,1,0,.13.05.05,0,0,1-.06.06s-.07,0-.07-.09V8.59c0-.05,0-.11,0-.18a.48.48,0,0,0-.13-.21.66.66,0,0,0-.4-.14l-.32,0H63.3a.07.07,0,0,0-.07.07v2.58a2.11,2.11,0,0,0,.06.42.43.43,0,0,0,.17.24.76.76,0,0,0,.35.12,4.75,4.75,0,0,0,.6,0h.48a1.37,1.37,0,0,0,.49-.1.58.58,0,0,0,.31-.24,1.73,1.73,0,0,0,.15-.47q0-.15.09-.15s0,0,0,.05a.31.31,0,0,1,0,.1s0,.07,0,.15,0,.18,0,.28l0,.3c0,.11,0,.18,0,.24a.57.57,0,0,1-.06.15.24.24,0,0,1-.09.08l-.16,0H64.31l-.71,0-.49,0h-1.3c-.11,0-.16,0-.16-.08s0-.06.08-.06h.15a.41.41,0,0,0,.16,0,.25.25,0,0,0,.2-.18,1.54,1.54,0,0,0,.09-.37,8.57,8.57,0,0,0,.05-.88Z" style="fill:#f1b74e"></path><path d="M38.44,18.73v-3.3c0-.15,0-.27,0-.36s0-.17,0-.25a1,1,0,0,0-.1-.39.48.48,0,0,0-.34-.18.65.65,0,0,0-.17,0h-.17c-.06,0-.08,0-.08-.06s0-.08.16-.08h3.64l.26,0,.18,0,.08,0a.07.07,0,0,1,.06,0c.05,0,.07,0,.07.09a.64.64,0,0,1,0,.15,1.52,1.52,0,0,0-.06.32v.13a1.37,1.37,0,0,1,0,.19c0,.07,0,.14,0,.2a.35.35,0,0,1,0,.13.19.19,0,0,1,0,.08.06.06,0,0,1-.06,0s-.07,0-.07-.12a1.37,1.37,0,0,0,0-.16.65.65,0,0,0-.07-.21.56.56,0,0,0-.22-.21.91.91,0,0,0-.47-.11l-1.56,0c-.06,0-.09,0-.09.11v2.76c0,.06,0,.09.07.09h1.75a1.41,1.41,0,0,0,.29-.05.32.32,0,0,0,.18-.13l.06-.07a.05.05,0,0,1,0,0s.05,0,.05.08a1.05,1.05,0,0,1,0,.18,2.2,2.2,0,0,0-.05.37,1,1,0,0,0,0,.18,1.34,1.34,0,0,0,0,.2,1.09,1.09,0,0,0,0,.18.54.54,0,0,0,0,.11.57.57,0,0,1,0,.13s0,.06-.06.06-.07,0-.07-.09a1,1,0,0,1,0-.18,1.16,1.16,0,0,0,0-.18.57.57,0,0,0-.17-.22.66.66,0,0,0-.36-.14l-.32,0H39.36s-.07,0-.07.09V20a8.76,8.76,0,0,0,.05.88,1,1,0,0,0,.09.37.36.36,0,0,0,.3.18l.25,0h.21c.05,0,.08,0,.08.06s-.05.08-.16.08H37.87c-.11,0-.16,0-.16-.08s0-.06.08-.06h.15l.15,0a.27.27,0,0,0,.21-.18,1.54,1.54,0,0,0,.09-.37c0-.21,0-.51,0-.88S38.44,19.21,38.44,18.73Z" style="fill:#f1b74e"></path><path d="M43.62,18.73v-3.3c0-.15,0-.27,0-.36s0-.17,0-.25a1,1,0,0,0-.1-.39.48.48,0,0,0-.34-.18.65.65,0,0,0-.17,0h-.17c-.06,0-.08,0-.08-.06s0-.08.16-.08h2.34a6.33,6.33,0,0,1,1,.07,2,2,0,0,1,.88.37,1.62,1.62,0,0,1,.22.19,2,2,0,0,1,.23.3,1.91,1.91,0,0,1,.18.38,1.51,1.51,0,0,1,.07.48A2.6,2.6,0,0,1,47.52,17a4.12,4.12,0,0,1-1,1.18l1.14,1.43c.35.44.67.81,1,1.12a2.29,2.29,0,0,0,.73.56,2,2,0,0,0,.5.16l.25,0h.15q.09,0,.09.06a.08.08,0,0,1,0,.07h-.91a3.71,3.71,0,0,1-.66,0,1.46,1.46,0,0,1-.43-.15,2.14,2.14,0,0,1-.63-.53c-.2-.25-.45-.56-.74-.94l-.32-.43-.31-.41-.27-.37-.2-.26a.19.19,0,0,0-.13-.06l-1.25,0s-.07,0-.07.08V20a8.76,8.76,0,0,0,0,.88,1,1,0,0,0,.09.37.36.36,0,0,0,.3.18l.25,0h.21c.05,0,.08,0,.08.06s0,.08-.16.08H44l-.36,0h-.59c-.11,0-.16,0-.16-.08s0-.06.08-.06h.15l.15,0a.27.27,0,0,0,.21-.18,1.54,1.54,0,0,0,.09-.37c0-.21,0-.51,0-.88S43.62,19.21,43.62,18.73Zm.81-4.15v3.26a.13.13,0,0,0,.07.12,1.1,1.1,0,0,0,.42.11,4.48,4.48,0,0,0,.64.05,1.78,1.78,0,0,0,.39,0,.85.85,0,0,0,.37-.15,1.23,1.23,0,0,0,.44-.58,2.28,2.28,0,0,0,.18-1,2.13,2.13,0,0,0-.46-1.46,1.62,1.62,0,0,0-1.29-.53,2.68,2.68,0,0,0-.42,0,1.09,1.09,0,0,0-.26,0A.11.11,0,0,0,44.43,14.58Z" style="fill:#f1b74e"></path><path d="M51.29,17v1.76c0,.48,0,.9,0,1.28a6.83,6.83,0,0,0,0,.88,1.54,1.54,0,0,0,.09.37.36.36,0,0,0,.31.18l.25,0h.2c.06,0,.08,0,.08.06s-.05.08-.16.08H49.87c-.11,0-.16,0-.16-.08s0-.06.08-.06h.15l.15,0a.25.25,0,0,0,.21-.18,1.54,1.54,0,0,0,.09-.37,6.83,6.83,0,0,0,0-.88c0-.38,0-.8,0-1.28v-3.3c0-.15,0-.27,0-.36a2,2,0,0,0,0-.25c0-.33-.14-.52-.35-.56a.47.47,0,0,0-.17,0h-.14s-.08,0-.08-.06,0-.08.16-.08h2c.11,0,.16,0,.16.08s0,.06-.08.06h-.11l-.14,0a.35.35,0,0,0-.28.17.93.93,0,0,0-.1.4,2,2,0,0,0,0,.25c0,.09,0,.21,0,.36V17Z" style="fill:#f1b74e"></path><path d="M53.38,18.73v-3.3c0-.15,0-.27,0-.36a2,2,0,0,0,0-.25.84.84,0,0,0-.1-.39.48.48,0,0,0-.34-.18.57.57,0,0,0-.16,0h-.18c-.06,0-.08,0-.08-.06s0-.08.16-.08h.73l.42,0h2.32l.43,0,.07,0a.1.1,0,0,1,.07,0s0,0,0,.09a.41.41,0,0,1,0,.15,3.15,3.15,0,0,0-.05.32v.13a1.37,1.37,0,0,1,0,.19c0,.07,0,.14,0,.2a.35.35,0,0,1,0,.13.19.19,0,0,1,0,.08.05.05,0,0,1-.05,0s-.08,0-.08-.13a1,1,0,0,0,0-.15.59.59,0,0,0-.05-.2.44.44,0,0,0-.18-.21,1.38,1.38,0,0,0-.54-.13,1.31,1.31,0,0,0-.27,0H54.29s-.06,0-.06.1v2.75c0,.07,0,.1.06.1H55.9l.3,0a.32.32,0,0,0,.18-.1c.07-.09.13-.13.15-.13s0,0,0,.08a1.05,1.05,0,0,1,0,.18c0,.09,0,.21,0,.38s0,.11,0,.17a1.28,1.28,0,0,0,0,.19,1.09,1.09,0,0,0,0,.17.54.54,0,0,0,0,.11.49.49,0,0,1,0,.12s0,.07-.06.07-.07,0-.07-.09a.81.81,0,0,0,0-.16.6.6,0,0,0-.16-.39.66.66,0,0,0-.4-.13l-.32,0-.44,0H54.3s-.07,0-.07.07v2.58a1.89,1.89,0,0,0,.06.41.41.41,0,0,0,.17.25.76.76,0,0,0,.35.12,4.75,4.75,0,0,0,.6,0h.48a1.63,1.63,0,0,0,.49-.1.53.53,0,0,0,.3-.24,1.41,1.41,0,0,0,.16-.48q0-.15.09-.15a0,0,0,0,1,0,0,.38.38,0,0,1,0,.1s0,.07,0,.16,0,.17,0,.28l0,.3c0,.1,0,.18,0,.23a.91.91,0,0,1-.06.16.15.15,0,0,1-.1.07l-.15,0H55.31l-.71,0-.49,0h-1.3c-.11,0-.16,0-.16-.08s0-.06.08-.06h.15l.15,0a.25.25,0,0,0,.21-.18,1.54,1.54,0,0,0,.09-.37,6.83,6.83,0,0,0,0-.88C53.38,19.63,53.38,19.21,53.38,18.73Z" style="fill:#f1b74e"></path><path d="M58.59,15.48l.14,4.78a3.74,3.74,0,0,0,0,.52,2.24,2.24,0,0,0,.07.34.48.48,0,0,0,.12.2.37.37,0,0,0,.17.1,1.47,1.47,0,0,0,.29,0h.22s.08,0,.08.06-.06.08-.18.08h-.72l-.36,0-.35,0h-.62c-.11,0-.16,0-.16-.08s0-.06.08-.06h.18a.86.86,0,0,0,.23,0c.13,0,.21-.14.25-.32a5,5,0,0,0,.06-1V14.44a3.06,3.06,0,0,1,0-.4c0-.07.05-.1.09-.1s.09,0,.17.12l.18.2.35.37.74.78,1,1.06,1.14,1.21.75.81.72.77.58.63.38.39-.11-5.07a2.34,2.34,0,0,0-.09-.68.4.4,0,0,0-.31-.26,1.35,1.35,0,0,0-.29,0h-.2c-.06,0-.08,0-.08-.07s.06-.07.2-.07h1.05l.32,0h.54c.13,0,.19,0,.19.07s0,.07-.12.07h-.09l-.15,0a.35.35,0,0,0-.31.24,2.48,2.48,0,0,0-.06.65l0,5.84c0,.17,0,.3,0,.39s0,.16,0,.21a.22.22,0,0,1,0,.09.06.06,0,0,1,0,0l-.07,0-.13-.1-.21-.19q-.12-.14-.33-.33l-.3-.3-.66-.66-.83-.85-.85-.89q-.45-.47-.87-.93l-.77-.84L59,15.91C58.8,15.72,58.67,15.58,58.59,15.48Z" style="fill:#f1b74e"></path><path d="M66.81,18.73V15.07a2,2,0,0,0,0-.25.73.73,0,0,0-.1-.39.44.44,0,0,0-.33-.18.65.65,0,0,0-.17,0H66c-.05,0-.08,0-.08-.06s.06-.08.16-.08h3.4a6.7,6.7,0,0,1,1.07.11,5,5,0,0,1,1.11.33,3.32,3.32,0,0,1,1,.69,5.54,5.54,0,0,1,.37.45,3.12,3.12,0,0,1,.32.57,4.3,4.3,0,0,1,.22.69,4.25,4.25,0,0,1,.08.83,3.68,3.68,0,0,1-.1.89,4.34,4.34,0,0,1-.24.77,3.53,3.53,0,0,1-.35.64,3.15,3.15,0,0,1-.41.51,3.24,3.24,0,0,1-.42.37,3.61,3.61,0,0,1-.63.38,5.21,5.21,0,0,1-.87.29,5.68,5.68,0,0,1-1.15.11l-.7,0-.71,0-.57,0-.27,0h-1c-.11,0-.17,0-.17-.08s0-.06.08-.06h.16l.15,0a.27.27,0,0,0,.21-.18,2.33,2.33,0,0,0,.08-.37,6.52,6.52,0,0,0,0-.88Zm.86-1.92v2.65c0,.19,0,.35,0,.48s0,.23,0,.27a5,5,0,0,0,0,.43.6.6,0,0,0,0,.2.27.27,0,0,0,0,.13.51.51,0,0,0,.15.14,1.31,1.31,0,0,0,.31.13,3.53,3.53,0,0,0,.51.1q.3,0,.75,0a3.65,3.65,0,0,0,1.33-.24,3,3,0,0,0,1.08-.69,1.86,1.86,0,0,0,.35-.46,3.4,3.4,0,0,0,.26-.58,3.61,3.61,0,0,0,.15-.65,4,4,0,0,0,0-.69,3.88,3.88,0,0,0-.09-.87,3.38,3.38,0,0,0-.24-.7,2.84,2.84,0,0,0-.31-.55c-.12-.16-.23-.29-.33-.4A3.66,3.66,0,0,0,71,15a3.57,3.57,0,0,0-.81-.34,4.08,4.08,0,0,0-.86-.16c-.29,0-.59,0-.89,0h-.18l-.2,0-.18,0-.1,0a.19.19,0,0,0-.12.2c0,.08,0,.21,0,.37v1.75Z" style="fill:#f1b74e"></path><path d="M75.35,21.76a4,4,0,0,1-.7-.06,3,3,0,0,1-.66-.2c-.07,0-.12-.07-.13-.11a1.47,1.47,0,0,1,0-.27c0-.25,0-.47,0-.66s0-.32,0-.4,0-.16.08-.16.07,0,.07.11a1,1,0,0,0,0,.17,1.5,1.5,0,0,0,0,.2,1.17,1.17,0,0,0,.21.48,1.12,1.12,0,0,0,.34.31,1.7,1.7,0,0,0,.46.18,2.63,2.63,0,0,0,.49,0,1.56,1.56,0,0,0,.64-.12,1.48,1.48,0,0,0,.45-.3,1.3,1.3,0,0,0,.27-.43,1.36,1.36,0,0,0,.09-.48A1.73,1.73,0,0,0,77,19.6a1.16,1.16,0,0,0-.2-.42,2.24,2.24,0,0,0-.36-.42c-.14-.14-.33-.31-.54-.49l-.46-.37a5.85,5.85,0,0,1-.66-.61,2.68,2.68,0,0,1-.4-.54,2.07,2.07,0,0,1-.26-1,1.73,1.73,0,0,1,.15-.73,1.69,1.69,0,0,1,.42-.57,1.77,1.77,0,0,1,.66-.37,2.65,2.65,0,0,1,.87-.13l.52,0a2.24,2.24,0,0,1,.42.08l.22,0h.14c.07,0,.1,0,.1.07s0,.12,0,.29,0,.43,0,.76c0,.16,0,.23-.07.23s-.06,0-.06,0a.25.25,0,0,1,0-.1,2.16,2.16,0,0,0,0-.25.74.74,0,0,0-.08-.24l-.1-.13a.78.78,0,0,0-.21-.18,2,2,0,0,0-.38-.16,2.4,2.4,0,0,0-.58-.06,1.35,1.35,0,0,0-.89.3,1.05,1.05,0,0,0-.36.85,1.29,1.29,0,0,0,.06.4,1.09,1.09,0,0,0,.19.37,3.48,3.48,0,0,0,.38.41,7.88,7.88,0,0,0,.61.5l.28.22A7.41,7.41,0,0,1,77,18a3.48,3.48,0,0,1,.45.57,2,2,0,0,1,.23.55,2.69,2.69,0,0,1,.06.57,2.6,2.6,0,0,1,0,.36,2,2,0,0,1-.14.44,1.93,1.93,0,0,1-.26.46,1.66,1.66,0,0,1-.43.4,2.36,2.36,0,0,1-.72.33A3.59,3.59,0,0,1,75.35,21.76Z" style="fill:#f1b74e"></path><path d="M40.6,24.27v5.51a6.52,6.52,0,0,0,0,.88,1,1,0,0,0,.09.37.36.36,0,0,0,.3.18l.25,0h.21s.08,0,.08.06,0,.08-.16.08H39.18c-.11,0-.16,0-.16-.08s0-.06.08-.06h.15l.15,0a.27.27,0,0,0,.21-.18,1.58,1.58,0,0,0,.08-.37,6.52,6.52,0,0,0,.05-.88V24.27l-1.5,0-.4,0-.28.06a.58.58,0,0,0-.21.09.67.67,0,0,0-.14.15l-.12.2-.05.11c0,.07-.06.1-.1.1s0,0,0-.09a1.52,1.52,0,0,1,0-.19c0-.11,0-.22.07-.34s0-.23.07-.33,0-.16,0-.18a.83.83,0,0,0,0-.12s0-.07.06-.07a.5.5,0,0,1,.15.05.66.66,0,0,0,.3.07l.46,0h4.56l.3,0,.18,0,.1,0s0,0,.05,0v.36c0,.12,0,.23,0,.34s0,.22,0,.31a1.49,1.49,0,0,0,0,.17c0,.09,0,.13-.07.13a0,0,0,0,1-.05,0,.5.5,0,0,1,0-.14v-.11a.45.45,0,0,0-.27-.38,1.66,1.66,0,0,0-.37-.11,4.32,4.32,0,0,0-.61-.06Z" style="fill:#f1b74e"></path><path d="M44.62,28.49V24.84c0-.09,0-.18,0-.26a.92.92,0,0,0-.1-.39.57.57,0,0,0-.34-.18L44,24h-.18s-.08,0-.08-.06,0-.08.16-.08h2.34a6.24,6.24,0,0,1,1,.08,2.1,2.1,0,0,1,.89.36,1.83,1.83,0,0,1,.21.2,1.73,1.73,0,0,1,.23.29,2.32,2.32,0,0,1,.18.39,1.51,1.51,0,0,1,.08.48,2.44,2.44,0,0,1-.28,1.12,4.15,4.15,0,0,1-1,1.19l1.15,1.43c.34.43.66.81,1,1.12a2.4,2.4,0,0,0,.73.56,2.82,2.82,0,0,0,.51.16l.24,0h.15q.09,0,.09.06s0,.05,0,.06l-.19,0h-.72a5.26,5.26,0,0,1-.66,0,1.57,1.57,0,0,1-.43-.15,2.16,2.16,0,0,1-.62-.54c-.21-.24-.45-.55-.74-.93l-.33-.43-.31-.42-.27-.36c-.09-.11-.15-.2-.2-.27a.18.18,0,0,0-.13-.06l-1.25,0a.07.07,0,0,0-.07.08v.24c0,.48,0,.91,0,1.29s0,.67,0,.88a1.54,1.54,0,0,0,.09.37.36.36,0,0,0,.31.18l.25,0h.2q.09,0,.09.06c0,.05-.06.08-.17.08h-2.2c-.11,0-.16,0-.16-.08s0-.06.08-.06h.15l.16,0a.25.25,0,0,0,.2-.18,1.54,1.54,0,0,0,.09-.37,8.76,8.76,0,0,0,0-.88Zm.81-4.15v3.27a.15.15,0,0,0,.07.12,1.52,1.52,0,0,0,.42.11,4.51,4.51,0,0,0,.65.05,2.58,2.58,0,0,0,.38,0,.89.89,0,0,0,.38-.15,1.43,1.43,0,0,0,.44-.58,2.28,2.28,0,0,0,.18-1,2.16,2.16,0,0,0-.47-1.47,1.64,1.64,0,0,0-1.29-.53l-.41,0-.27,0A.12.12,0,0,0,45.43,24.34Z" style="fill:#f1b74e"></path><path d="M50.65,30.29l2.3-6.2c.06-.16.11-.27.13-.32s.06-.07.1-.07.06,0,.09.07.07.14.13.29l.19.48c.09.25.21.55.35.92l.46,1.19c.17.43.34.86.5,1.28l.48,1.2.38.95a4.62,4.62,0,0,0,.26.54,2,2,0,0,0,.23.33.78.78,0,0,0,.21.17l.17.07.22,0H57c.07,0,.1,0,.1.06s0,.05-.06.06l-.14,0H55.35l-.23,0s-.08,0-.08-.05,0-.06.07-.07a.14.14,0,0,0,.08-.09.2.2,0,0,0,0-.18l-.94-2.46a.1.1,0,0,0-.09-.06H52a.11.11,0,0,0-.1.08l-.61,1.77a2.11,2.11,0,0,0-.14.67.24.24,0,0,0,.12.22.68.68,0,0,0,.26.07h.1c.07,0,.11,0,.11.06s-.05.08-.16.08H49.61c-.13,0-.19,0-.19-.08s0-.06.09-.06h.29a.76.76,0,0,0,.53-.31A2.64,2.64,0,0,0,50.65,30.29Zm1.42-2.21H54s.05,0,0-.06l-1-2.7q-.07-.22-.15,0L52,28S52,28.08,52.07,28.08Z" style="fill:#f1b74e"></path><path d="M57.77,28.49V25.2c0-.15,0-.27,0-.36s0-.18,0-.26a1.09,1.09,0,0,0-.1-.39.57.57,0,0,0-.34-.18l-.17,0H57c-.06,0-.08,0-.08-.06s0-.08.16-.08h3.4a6.77,6.77,0,0,1,1.07.1,5,5,0,0,1,1.1.34,3.19,3.19,0,0,1,1,.69,4.23,4.23,0,0,1,.37.45,3.36,3.36,0,0,1,.31.56,3.59,3.59,0,0,1,.22.7,4.25,4.25,0,0,1,.08.83,4.17,4.17,0,0,1-.09.88,4.45,4.45,0,0,1-.24.78,4.83,4.83,0,0,1-.35.64,5.69,5.69,0,0,1-.41.51,4.21,4.21,0,0,1-.42.37,3.48,3.48,0,0,1-.64.37,3.86,3.86,0,0,1-.87.29,4.89,4.89,0,0,1-1.15.12l-.7,0-.7,0-.57,0-.28,0h-1c-.11,0-.16,0-.16-.08s0-.06.08-.06h.15l.15,0a.26.26,0,0,0,.21-.18,1.54,1.54,0,0,0,.09-.37c0-.21,0-.51,0-.88S57.77,29,57.77,28.49Zm.85-1.91v2.64c0,.2,0,.36,0,.49V30a1.62,1.62,0,0,0,0,.21c0,.07,0,.15,0,.22l0,.2a.32.32,0,0,0,0,.13.76.76,0,0,0,.16.14,1.07,1.07,0,0,0,.3.13,2.64,2.64,0,0,0,.51.09,5.53,5.53,0,0,0,.76,0,3.69,3.69,0,0,0,1.33-.24,3.22,3.22,0,0,0,1.08-.69,2,2,0,0,0,.34-.46,3.4,3.4,0,0,0,.26-.58,4.54,4.54,0,0,0,.16-.66,5.06,5.06,0,0,0,.05-.68,3.88,3.88,0,0,0-.09-.87,3.48,3.48,0,0,0-.24-.71,3.35,3.35,0,0,0-.32-.54c-.12-.16-.22-.29-.32-.4a3.66,3.66,0,0,0-.75-.59,3.89,3.89,0,0,0-.82-.35,4,4,0,0,0-.85-.15c-.3,0-.6,0-.9,0H59l-.18,0-.11,0a.2.2,0,0,0-.12.2c0,.09,0,.21,0,.37v1.76Z" style="fill:#f1b74e"></path><path d="M65.21,28.49V24.84c0-.09,0-.18,0-.26a.92.92,0,0,0-.1-.39.54.54,0,0,0-.33-.18l-.17,0h-.18s-.08,0-.08-.06,0-.08.16-.08h.73l.42,0H68a3,3,0,0,0,.44-.05.11.11,0,0,0,.07,0l.07,0s0,0,0,.09a.61.61,0,0,1,0,.16,1.53,1.53,0,0,0,0,.31s0,.07,0,.13,0,.13,0,.2a1.36,1.36,0,0,0,0,.2c0,.06,0,.11,0,.13l0,.08a0,0,0,0,1,0,0c-.05,0-.08,0-.08-.13a1.18,1.18,0,0,0,0-.16.46.46,0,0,0,0-.2.38.38,0,0,0-.18-.2,1.54,1.54,0,0,0-.54-.14H66.12s-.06,0-.06.1v2.76c0,.06,0,.1.06.1h1.62l.29,0a.35.35,0,0,0,.18-.1c.08-.09.13-.13.15-.13s.06,0,.06.08a.65.65,0,0,1,0,.18c0,.08,0,.21,0,.38s0,.11,0,.17,0,.13,0,.19,0,.12,0,.17,0,.08,0,.1a.57.57,0,0,1,0,.13.05.05,0,0,1-.06.06s-.07,0-.07-.09v-.15a1.36,1.36,0,0,0,0-.17.46.46,0,0,0-.13-.22.66.66,0,0,0-.4-.13l-.32,0-.44,0h-.69a.06.06,0,0,0-.07.07v2.57a2.11,2.11,0,0,0,.06.42.45.45,0,0,0,.17.25.8.8,0,0,0,.35.12,4.75,4.75,0,0,0,.6,0l.49,0a1.58,1.58,0,0,0,.48-.09.6.6,0,0,0,.31-.25,1.62,1.62,0,0,0,.15-.47q0-.15.09-.15a.06.06,0,0,1,.06,0v.1a1.14,1.14,0,0,1,0,.15c0,.09,0,.18,0,.28l0,.31a2.07,2.07,0,0,1,0,.23.57.57,0,0,1-.06.15.18.18,0,0,1-.09.08.35.35,0,0,1-.16,0H67.14l-.71,0-.49,0h-1.3c-.1,0-.16,0-.16-.08s0-.06.08-.06h.16l.15,0a.27.27,0,0,0,.21-.18,2.33,2.33,0,0,0,.08-.37,8.76,8.76,0,0,0,0-.88Z" style="fill:#f1b74e"></path><path d="M69.94,28.49V25.2c0-.15,0-.27,0-.36a2.17,2.17,0,0,0,0-.26.92.92,0,0,0-.1-.39.57.57,0,0,0-.34-.18l-.16,0h-.18c-.06,0-.08,0-.08-.06s0-.08.16-.08h2.34a6.24,6.24,0,0,1,1,.08,2.1,2.1,0,0,1,.89.36,1.83,1.83,0,0,1,.21.2,1.73,1.73,0,0,1,.23.29,2.32,2.32,0,0,1,.18.39,1.51,1.51,0,0,1,.08.48,2.44,2.44,0,0,1-.28,1.12,4.15,4.15,0,0,1-1,1.19L74,29.38c.34.43.66.81,1,1.12a2.4,2.4,0,0,0,.73.56,2.82,2.82,0,0,0,.51.16l.24,0h.15q.09,0,.09.06a.06.06,0,0,1,0,.06l-.19,0h-.72a5.13,5.13,0,0,1-.66,0,1.46,1.46,0,0,1-.43-.15,2.16,2.16,0,0,1-.62-.54c-.21-.24-.45-.55-.74-.93L73,29.3l-.31-.42-.27-.36c-.09-.11-.15-.2-.2-.27a.18.18,0,0,0-.13-.06l-1.25,0s-.07,0-.07.08v.24c0,.48,0,.91,0,1.29a6.83,6.83,0,0,0,0,.88,1.54,1.54,0,0,0,.09.37.36.36,0,0,0,.31.18l.25,0h.2c.06,0,.08,0,.08.06s0,.08-.16.08h-2.2c-.11,0-.16,0-.16-.08s0-.06.08-.06h.15l.16,0a.25.25,0,0,0,.2-.18,1.54,1.54,0,0,0,.09-.37,6.83,6.83,0,0,0,0-.88C69.94,29.4,69.94,29,69.94,28.49Zm.81-4.15v3.27a.13.13,0,0,0,.07.12,1.52,1.52,0,0,0,.42.11,4.51,4.51,0,0,0,.65.05,2.58,2.58,0,0,0,.38,0,.89.89,0,0,0,.38-.15,1.43,1.43,0,0,0,.44-.58,2.29,2.29,0,0,0,.17-1,2.16,2.16,0,0,0-.46-1.47,1.64,1.64,0,0,0-1.29-.53l-.41,0-.27,0A.12.12,0,0,0,70.75,24.34Z" style="fill:#f1b74e"></path><path d="M77.37,31.53a4,4,0,0,1-.7-.06,2.54,2.54,0,0,1-.66-.21c-.07,0-.12-.06-.13-.11a1.26,1.26,0,0,1,0-.26c0-.25,0-.47,0-.66s0-.32,0-.4,0-.16.08-.16.07,0,.07.11a1.09,1.09,0,0,0,0,.17,1.5,1.5,0,0,0,0,.2,1.13,1.13,0,0,0,.21.47,1.07,1.07,0,0,0,.35.32,1.28,1.28,0,0,0,.45.17,2,2,0,0,0,.49.06,1.56,1.56,0,0,0,.64-.12,1.34,1.34,0,0,0,.45-.31,1.17,1.17,0,0,0,.27-.42,1.36,1.36,0,0,0,.09-.48,1.86,1.86,0,0,0-.06-.48,1.34,1.34,0,0,0-.2-.42,2.57,2.57,0,0,0-.36-.41,7.11,7.11,0,0,0-.54-.49l-.46-.37a5.85,5.85,0,0,1-.66-.61,3,3,0,0,1-.4-.54,2.06,2.06,0,0,1-.2-.51,2.16,2.16,0,0,1-.06-.51,1.77,1.77,0,0,1,.15-.73,1.69,1.69,0,0,1,.42-.57,1.92,1.92,0,0,1,.66-.37,2.94,2.94,0,0,1,.87-.13,3.94,3.94,0,0,1,.52,0,3.66,3.66,0,0,1,.42.07l.22,0h.14c.07,0,.1,0,.1.07s0,.13,0,.3,0,.42,0,.76c0,.16,0,.23-.07.23a.06.06,0,0,1-.06,0,.3.3,0,0,1,0-.1,2.16,2.16,0,0,0,0-.25.92.92,0,0,0-.08-.25l-.1-.13a.78.78,0,0,0-.21-.18,1.5,1.5,0,0,0-.38-.15,2.36,2.36,0,0,0-.58-.07,1.36,1.36,0,0,0-.89.31,1.05,1.05,0,0,0-.36.85,1.34,1.34,0,0,0,.06.4A1.23,1.23,0,0,0,77,26a2.75,2.75,0,0,0,.38.41,7.5,7.5,0,0,0,.6.5l.28.22a6.43,6.43,0,0,1,.74.65,3.48,3.48,0,0,1,.45.57,1.62,1.62,0,0,1,.23.55,2.49,2.49,0,0,1,0,.93,2.71,2.71,0,0,1-.13.44,2.68,2.68,0,0,1-.27.45,1.69,1.69,0,0,1-.43.41,2.12,2.12,0,0,1-.72.32A3.1,3.1,0,0,1,77.37,31.53Z" style="fill:#f1b74e"></path></svg>